<svg id="Groupe_19" data-name="Groupe 19" xmlns="http://www.w3.org/2000/svg" xmlns:xlink="http://www.w3.org/1999/xlink" width="25" height="33.226" viewBox="0 0 25 33.226">
  <defs>
    <clipPath id="clip-path">
      <rect id="Rectangle_17" data-name="Rectangle 17" width="25" height="33.226" fill="#8c9c7c"/>
    </clipPath>
  </defs>
  <g id="Groupe_18" data-name="Groupe 18" clip-path="url(#clip-path)">
    <path id="Tracé_17" data-name="Tracé 17" d="M14.443.18a12.231,12.231,0,0,1,7.38,4.036,12.242,12.242,0,0,1,3.112,7.049,13.5,13.5,0,0,1-.774,5.878,32.3,32.3,0,0,1-4.422,8.188,56.754,56.754,0,0,1-6.547,7.614.99.99,0,0,1-1.383,0A54.194,54.194,0,0,1,3.757,23.08a25,25,0,0,1-3.4-7.632A12.112,12.112,0,0,1,1.5,6.617,12.22,12.22,0,0,1,10.625.172,10.447,10.447,0,0,1,14.443.18M19.5,12.524a7,7,0,1,0-7.024,6.986A7.013,7.013,0,0,0,19.5,12.524" transform="translate(0 0)" fill="#8c9c7c"/>
  </g>
</svg>
