<svg id="Groupe_15" data-name="Groupe 15" xmlns="http://www.w3.org/2000/svg" xmlns:xlink="http://www.w3.org/1999/xlink" width="20" height="34.795" viewBox="0 0 20 34.795">
  <defs>
    <clipPath id="clip-path">
      <rect id="Rectangle_15" data-name="Rectangle 15" width="20" height="34.795" fill="#8c9c7c"/>
    </clipPath>
  </defs>
  <g id="Groupe_14" data-name="Groupe 14" clip-path="url(#clip-path)">
    <path id="Tracé_13" data-name="Tracé 13" d="M17.7.056a2.318,2.318,0,0,1,1.416.469A2.351,2.351,0,0,1,20,2.458q0,3.16,0,6.32,0,11.7,0,23.41A2.383,2.383,0,0,1,17.382,34.8H2.6A2.375,2.375,0,0,1,.015,32.222C.015,22.448.028,12.674,0,2.9A2.66,2.66,0,0,1,1.3.269,2.342,2.342,0,0,1,2.414,0ZM18.912,17.41q0-7.441,0-14.882a1.292,1.292,0,0,0-1.45-1.44H2.543A1.291,1.291,0,0,0,1.1,2.536q0,14.865,0,29.731a1.292,1.292,0,0,0,1.449,1.441H17.437a1.3,1.3,0,0,0,1.475-1.484q0-7.407,0-14.814" transform="translate(-0.001 -0.001)" fill="#8c9c7c"/>
    <path id="Tracé_14" data-name="Tracé 14" d="M91.916,327.286a1.827,1.827,0,1,1,1.817-1.845,1.829,1.829,0,0,1-1.817,1.845M91.9,326.2a.743.743,0,0,0,.741-.726.741.741,0,1,0-1.482,0,.742.742,0,0,0,.741.726" transform="translate(-81.896 -294.253)" fill="#8c9c7c"/>
    <path id="Tracé_15" data-name="Tracé 15" d="M87.048,27.256c-.555,0-1.11,0-1.665,0-.4,0-.636-.211-.63-.55a.542.542,0,0,1,.614-.534q1.7-.008,3.4,0a.543.543,0,0,1,.614.535c0,.337-.231.546-.632.549-.566,0-1.133,0-1.7,0" transform="translate(-77.058 -23.792)" fill="#8c9c7c"/>
  </g>
</svg>
